# Blender 5.2.2 LTS
# www.blender.org
mtllib panel_ala1.mtl
g ala1_Dragon_Цилиндр.004
v -4.541031 -0.820322 -0.049029
v -4.541031 0.932049 -0.049029
v -4.539743 -0.820322 -0.089814
v -4.539743 0.932049 -0.089814
v -3.022125 -0.820321 -0.041872
v -1.504508 -0.820321 0.006070
v -1.504508 0.932049 0.006070
v -3.022125 0.932049 -0.041873
v -1.505797 -0.820321 0.046855
v -3.023413 -0.820321 -0.001087
v -3.023413 0.932049 -0.001087
v -1.505797 0.932049 0.046855
v -1.408439 -0.820321 0.009104
v -1.409727 0.932049 0.049891
v -1.408439 0.932049 0.009104
v -1.409727 -0.820321 0.049891
v -3.125606 0.932049 -0.045142
v -3.126894 -0.820321 -0.004356
v -3.125606 -0.820321 -0.045142
v -3.126894 0.932049 -0.004356
v -3.126894 0.932049 -0.004356
v -3.023413 0.932049 -0.001087
v -3.022125 0.932049 -0.041873
v -3.125606 0.932049 -0.045142
v -3.041762 -0.787873 -0.041737
v -3.043002 0.899601 -0.002462
v -3.041762 0.899601 -0.041737
v -3.043002 -0.787873 -0.002462
v -3.043002 0.899601 -0.002462
v -3.041762 0.899601 -0.041737
v -1.486405 0.899601 0.007397
v -1.487645 -0.787873 0.046673
v -1.486405 -0.787873 0.007397
v -1.487645 0.899601 0.046673
v 0.011822 -0.769015 0.094798
v -0.046706 -0.820321 0.092948
v -0.046707 0.932049 0.092948
v 0.011821 0.880743 0.094798
v -0.045418 -0.820321 0.052163
v 0.013109 -0.769015 0.054013
v 0.013109 0.880743 0.054013
v -0.045418 0.932049 0.052163
v 0.013109 -0.693551 0.054013
v 0.011822 -0.686145 0.094798
v 0.013109 -0.574991 0.054013
v 0.011821 -0.568920 0.094798
v -0.028023 -0.574991 0.052712
v -0.028023 -0.693551 0.052712
v -0.029312 -0.686145 0.093498
v -0.029312 -0.568920 0.093498
v -4.541031 0.348290 -0.049029
v -4.539743 0.348483 -0.089814
v -4.541031 0.495723 -0.049029
v -4.539743 0.500002 -0.089814
v -4.459789 0.500002 -0.087289
v -4.459789 0.348483 -0.087289
v -4.461077 0.495723 -0.046503
v -4.461077 0.348290 -0.046503
v -4.539743 -0.693351 -0.089814
v -4.541031 -0.691601 -0.049029
v -4.539743 -0.754774 -0.089814
v -4.541031 -0.752889 -0.049029
v -4.473372 -0.693351 -0.087717
v -4.474660 -0.691601 -0.046932
v -4.473372 -0.754774 -0.087717
v -4.474660 -0.752889 -0.046932
v -4.541031 -0.820322 -0.049029
v -4.541031 0.932049 -0.049029
v -4.539743 -0.820322 -0.089814
v -4.539743 0.932049 -0.089814
v -3.022125 -0.820321 -0.041872
v -1.504508 -0.820321 0.006070
v -1.504508 0.932049 0.006070
v -3.022125 0.932049 -0.041873
v -1.505797 -0.820321 0.046855
v -3.023413 -0.820321 -0.001087
v -3.023413 0.932049 -0.001087
v -1.505797 0.932049 0.046855
v -1.408439 -0.820321 0.009104
v -1.409727 0.932049 0.049891
v -1.408439 0.932049 0.009104
v -1.409727 -0.820321 0.049891
v -3.125606 0.932049 -0.045142
v -3.126894 -0.820321 -0.004356
v -3.125606 -0.820321 -0.045142
v -3.126894 0.932049 -0.004356
v -3.126894 0.932049 -0.004356
v -3.023413 0.932049 -0.001087
v -3.022125 0.932049 -0.041873
v -3.125606 0.932049 -0.045142
v -3.041762 -0.787873 -0.041737
v -3.043002 0.899601 -0.002462
v -3.041762 0.899601 -0.041737
v -3.043002 -0.787873 -0.002462
v -3.043002 0.899601 -0.002462
v -3.041762 0.899601 -0.041737
v -1.486405 0.899601 0.007397
v -1.487645 -0.787873 0.046673
v -1.486405 -0.787873 0.007397
v -1.487645 0.899601 0.046673
v 0.011822 -0.769015 0.094798
v -0.046706 -0.820321 0.092948
v -0.046707 0.932049 0.092948
v 0.011821 0.880743 0.094798
v -0.045418 -0.820321 0.052163
v 0.013109 -0.769015 0.054013
v 0.013109 0.880743 0.054013
v -0.045418 0.932049 0.052163
v 0.013109 -0.693551 0.054013
v 0.011822 -0.686145 0.094798
v 0.013109 -0.574991 0.054013
v 0.011821 -0.568920 0.094798
v -0.028023 -0.574991 0.052712
v -0.028023 -0.693551 0.052712
v -0.029312 -0.686145 0.093498
v -0.029312 -0.568920 0.093498
v -4.541031 0.348290 -0.049029
v -4.539743 0.348483 -0.089814
v -4.541031 0.495723 -0.049029
v -4.539743 0.500002 -0.089814
v -4.459789 0.500002 -0.087289
v -4.459789 0.348483 -0.087289
v -4.461077 0.495723 -0.046503
v -4.461077 0.348290 -0.046503
v -4.539743 -0.693351 -0.089814
v -4.541031 -0.691601 -0.049029
v -4.539743 -0.754774 -0.089814
v -4.541031 -0.752889 -0.049029
v -4.473372 -0.693351 -0.087717
v -4.474660 -0.691601 -0.046932
v -4.473372 -0.754774 -0.087717
v -4.474660 -0.752889 -0.046932
vn 0.9995 -0.0000 0.0316
vn -0.0000 -1.0000 -0.0000
vn -0.0000 1.0000 -0.0000
vn 0.0316 -0.0000 -0.9995
vn -0.0000 -0.0000 -1.0000
vn -0.8725 0.4879 -0.0276
vn 0.0700 -0.0000 -0.9975
vn -0.0731 -0.0000 0.9973
vn -0.0316 -0.0000 0.9995
vn -0.9995 -0.0000 -0.0315
vn 0.3840 -0.9233 0.0121
vn 0.0413 -0.0000 -0.9991
vn -0.3605 0.9327 -0.0114
vn -0.0406 -0.0000 0.9992
vn 0.8553 -0.5175 0.0270
vn -0.3605 -0.9327 -0.0114
vn 0.0069 -0.0000 1.0000
vn 0.8553 0.5175 0.0270
vn 0.0226 -0.0000 -0.9997
vn -0.0100 -0.0000 -0.9999
vn -0.8725 -0.4879 -0.0276
vn -0.0219 -0.0000 0.9998
vn 0.3840 0.9233 0.0121
vn -0.6587 0.7521 -0.0208
vn -0.6587 -0.7521 -0.0208
vn -0.9995 -0.0000 -0.0316
vn -0.0056 -0.9839 0.1785
vn 0.0047 0.9891 -0.1471
vn 0.0046 0.9891 -0.1471
vn -0.0033 0.9945 0.1042
vn 0.0001 -1.0000 -0.0047
vn 0.0014 0.9991 -0.0428
vn -0.0015 -0.9989 0.0461
vn -0.0315 -0.0000 0.9995
vt 0.977257 0.513606
vt 0.974446 0.525111
vt 0.974446 0.513603
vt 0.250826 0.985204
vt 0.253636 0.990309
vt 0.250826 0.990320
vt 0.945864 0.863168
vt 0.943051 0.770455
vt 0.945864 0.770454
vt 0.933910 0.742102
vt 0.936722 0.644602
vt 0.936722 0.742102
vt 0.447855 0.311056
vt 0.437312 0.216915
vt 0.575004 0.310768
vt 0.747010 0.314664
vt 0.940936 0.257470
vt 0.938124 0.154242
vt 0.940936 0.154240
vt 0.992441 0.774813
vt 0.994992 0.777462
vt 0.992441 0.777513
vt 0.931214 0.587512
vt 0.934026 0.482877
vt 0.934026 0.587511
vt 0.439859 0.105642
vt 0.575004 0.107923
vt 0.437312 0.106952
vt 0.437312 0.210369
vt 0.150591 0.213260
vt 0.285474 0.212941
vt 0.282933 0.214164
vt 0.148042 0.107769
vt 0.285474 0.108707
vt 0.977270 0.499724
vt 0.974467 0.505660
vt 0.974467 0.499724
vt 0.943097 0.764735
vt 0.945805 0.764734
vt 0.572452 0.212565
vt 0.439859 0.211630
vt 0.350632 0.946039
vt 0.347820 0.849849
vt 0.350632 0.849848
vt 0.933989 0.747922
vt 0.936697 0.747922
vt 0.282933 0.107338
vt 0.148042 0.100662
vt 0.285474 0.101600
vt 0.992751 0.706922
vt 0.995116 0.704218
vt 0.995116 0.706925
vt 0.046355 0.990234
vt 0.043604 0.984947
vt 0.046416 0.984948
vt 0.972145 0.376321
vt 0.969445 0.373597
vt 0.972145 0.373511
vt 0.575004 0.100872
vt 0.437312 0.099901
vt 0.575004 0.211340
vt 0.992441 0.767433
vt 0.994994 0.764784
vt 0.994994 0.767587
vt 0.148042 0.218601
vt 0.285474 0.219539
vt 0.933167 0.770071
vt 0.935956 0.764735
vt 0.935979 0.770072
vt 0.935938 0.864047
vt 0.933167 0.868140
vt 0.933126 0.864046
vt 0.921339 0.482885
vt 0.923823 0.486917
vt 0.921020 0.486925
vt 0.105032 0.971411
vt 0.102229 0.980154
vt 0.102229 0.970828
vt 0.860818 0.475709
vt 0.863614 0.472993
vt 0.863614 0.475805
vt 0.921337 0.600953
vt 0.924141 0.601423
vt 0.051662 0.911382
vt 0.048851 0.945117
vt 0.048851 0.911060
vt 0.871804 0.237015
vt 0.874621 0.234185
vt 0.874621 0.237021
vt 0.720656 0.983169
vt 0.717847 0.988687
vt 0.717847 0.983175
vt 0.266233 0.314217
vt 0.285474 0.313154
vt 0.909054 0.264152
vt 0.906242 0.258712
vt 0.909054 0.258713
vt 0.529135 0.009632
vt 0.540719 0.009714
vt 0.091456 0.989966
vt 0.088645 0.985331
vt 0.091456 0.985182
vt 0.569632 0.861776
vt 0.572443 0.942949
vt 0.569632 0.942945
vt 0.116793 0.985373
vt 0.113979 0.989947
vt 0.113979 0.985371
vt 0.262617 0.985595
vt 0.265428 0.990084
vt 0.262616 0.990109
vt 0.181926 0.009259
vt 0.977257 0.525433
vt 0.253636 0.985045
vt 0.943051 0.863169
vt 0.933910 0.644603
vt 0.570972 0.314728
vt 0.457065 0.313924
vt 0.457065 0.311121
vt 0.447855 0.313859
vt 0.441343 0.313814
vt 0.437312 0.309797
vt 0.575004 0.217886
vt 0.938124 0.257471
vt 0.994992 0.774659
vt 0.931214 0.482878
vt 0.572452 0.106577
vt 0.148042 0.212002
vt 0.977270 0.506242
vt 0.347820 0.946040
vt 0.150591 0.106435
vt 0.992751 0.704111
vt 0.043647 0.990234
vt 0.969445 0.376303
vt 0.992441 0.764734
vt 0.933248 0.764734
vt 0.935979 0.868141
vt 0.924141 0.482877
vt 0.105032 0.980631
vt 0.860818 0.472896
vt 0.051662 0.945106
vt 0.871804 0.234179
vt 0.720656 0.988682
vt 0.281450 0.317146
vt 0.275532 0.317106
vt 0.275532 0.314281
vt 0.266233 0.317042
vt 0.152066 0.316263
vt 0.148042 0.312216
vt 0.906242 0.264151
vt 0.437312 0.003536
vt 0.442610 0.003573
vt 0.442610 0.008096
vt 0.447426 0.008130
vt 0.447426 0.003607
vt 0.529135 0.004184
vt 0.575004 0.004507
vt 0.540719 0.004265
vt 0.088645 0.990125
vt 0.572443 0.861628
vt 0.116793 0.989949
vt 0.265428 0.985569
vt 0.193809 0.003849
vt 0.275516 0.004406
vt 0.275516 0.008965
vt 0.280333 0.008998
vt 0.280333 0.004439
vt 0.285474 0.004474
vt 0.193809 0.009340
vt 0.148042 0.003536
vt 0.181926 0.003767
s 1
g off
g ala1_Dragon.001
usemtl Dragon.001
f 56/1/1 57/2/1 58/3/1
s 2
f 61/4/1 1/5/1 3/6/1
s 3
f 42/7/2 14/8/2 15/9/2
s 4
f 19/10/3 1/11/3 18/12/3
s 5
f 49/13/4 16/14/4 37/15/4
s 0
f 20/16/5 24/16/5 21/16/5
s 7
f 7/17/2 11/18/2 8/19/2
s 8
f 33/20/6 9/21/6 32/22/6
s 9
f 6/23/3 10/24/3 9/25/3
s 10
f 28/26/7 11/27/7 10/28/7
s 11
f 11/27/4 9/29/4 10/28/4
s 12
f 31/30/8 6/31/8 33/32/8
s 13
f 6/31/9 8/33/9 5/34/9
s 14
f 35/35/10 43/36/10 40/37/10
s 15
f 15/9/11 34/38/11 31/39/11
s 16
f 34/40/12 16/14/12 32/41/12
s 17
f 17/42/2 2/43/2 4/44/2
s 18
f 25/45/13 18/12/13 28/46/13
s 19
f 25/47/14 17/48/14 19/49/14
s 20
f 23/50/15 29/51/15 30/52/15
s 0
f 8/16/5 22/16/5 23/16/5
f 26/16/5 21/16/5 29/16/5
f 27/16/5 23/16/5 30/16/5
f 17/16/5 30/16/5 24/16/5
f 11/16/5 29/16/5 22/16/5
s 26
f 30/53/16 21/54/16 24/55/16
s 27
f 8/33/17 25/47/17 5/34/17
s 28
f 5/56/18 28/57/18 10/58/18
s 29
f 20/59/19 28/26/19 18/60/19
s 30
f 12/61/20 32/41/20 9/29/20
s 31
f 31/62/21 12/63/21 7/64/21
s 32
f 15/65/22 33/32/22 13/66/22
s 33
f 13/67/23 32/68/23 16/69/23
s 34
f 36/70/24 40/71/24 39/72/24
s 35
f 37/73/25 41/74/25 38/75/25
s 36
f 39/72/3 16/69/3 36/70/3
s 37
f 49/76/26 47/77/26 48/78/26
s 38
f 43/79/27 49/80/27 48/81/27
s 39
f 46/82/26 41/74/26 45/83/26
s 40
f 54/84/1 2/85/1 53/86/1
s 41
f 45/87/28 50/88/28 46/89/29
s 42
f 53/90/30 55/91/30 54/92/30
s 43
f 47/93/9 15/65/9 39/94/9
s 44
f 51/95/31 56/96/31 58/97/31
s 45
f 58/98/4 57/99/4 18/60/4
s 46
f 66/100/1 63/101/1 64/102/1
s 47
f 60/103/1 52/104/1 51/105/1
s 48
f 60/106/32 63/107/32 59/108/32
s 49
f 62/109/33 65/110/33 66/111/33
s 50
f 19/49/9 17/48/9 55/112/9
s 0
f 12/16/5 75/16/5 78/16/5
f 7/16/5 72/16/5 73/16/5
f 8/16/5 71/16/5 74/16/5
f 33/16/5 79/16/5 99/16/5
f 14/16/5 100/16/5 80/16/5
f 13/16/5 81/16/5 79/16/5
f 16/16/5 79/16/5 82/16/5
f 14/16/5 81/16/5 80/16/5
f 16/16/5 80/16/5 82/16/5
f 27/16/5 83/16/5 93/16/5
f 18/16/5 94/16/5 84/16/5
f 19/16/5 69/16/5 85/16/5
f 20/16/5 68/16/5 86/16/5
f 18/16/5 86/16/5 84/16/5
f 20/16/5 83/16/5 86/16/5
f 18/16/5 85/16/5 84/16/5
f 17/16/5 85/16/5 83/16/5
f 22/16/5 95/16/5 88/16/5
f 23/16/5 88/16/5 89/16/5
f 30/16/5 90/16/5 96/16/5
f 24/16/5 87/16/5 90/16/5
f 17/16/5 90/16/5 83/16/5
f 21/16/5 86/16/5 87/16/5
f 11/16/5 88/16/5 77/16/5
f 23/16/5 74/16/5 89/16/5
f 25/16/5 85/16/5 91/16/5
f 26/16/5 86/16/5 92/16/5
f 27/16/5 74/16/5 93/16/5
f 10/16/5 94/16/5 76/16/5
f 21/16/5 95/16/5 87/16/5
f 30/16/5 89/16/5 96/16/5
f 30/16/5 93/16/5 96/16/5
f 29/16/5 92/16/5 95/16/5
f 29/16/5 96/16/5 95/16/5
f 25/16/5 93/16/5 91/16/5
f 28/16/5 91/16/5 94/16/5
f 28/16/5 92/16/5 94/16/5
f 31/16/5 81/16/5 97/16/5
f 16/16/5 98/16/5 82/16/5
f 33/16/5 72/16/5 99/16/5
f 12/16/5 100/16/5 78/16/5
f 32/16/5 100/16/5 98/16/5
f 34/16/5 97/16/5 100/16/5
f 33/16/5 97/16/5 99/16/5
f 32/16/5 99/16/5 98/16/5
f 40/16/5 105/16/5 106/16/5
f 39/16/5 102/16/5 105/16/5
f 35/16/5 102/16/5 101/16/5
f 40/16/5 101/16/5 106/16/5
f 37/16/5 104/16/5 103/16/5
f 42/16/5 103/16/5 108/16/5
f 42/16/5 107/16/5 108/16/5
f 41/16/5 104/16/5 107/16/5
f 39/16/5 79/16/5 105/16/5
f 36/16/5 82/16/5 102/16/5
f 38/16/5 112/16/5 104/16/5
f 43/16/5 106/16/5 109/16/5
f 37/16/5 80/16/5 103/16/5
f 15/16/5 108/16/5 81/16/5
f 44/16/5 101/16/5 110/16/5
f 44/16/5 109/16/5 110/16/5
f 41/16/5 111/16/5 107/16/5
f 45/16/5 112/16/5 111/16/5
f 47/16/5 114/16/5 113/16/5
f 48/16/5 115/16/5 114/16/5
f 50/16/5 115/16/5 116/16/5
f 50/16/5 113/16/5 116/16/5
f 49/16/5 110/16/5 115/16/5
f 48/16/5 109/16/5 114/16/5
f 45/16/5 113/16/5 111/16/5
f 46/16/5 116/16/5 112/16/5
f 51/16/5 118/16/5 117/16/5
f 2/16/5 119/16/5 68/16/5
f 54/16/5 70/16/5 120/16/5
f 53/16/5 120/16/5 119/16/5
f 56/16/5 121/16/5 122/16/5
f 57/16/5 124/16/5 123/16/5
f 58/16/5 122/16/5 124/16/5
f 55/16/5 123/16/5 121/16/5
f 53/16/5 123/16/5 119/16/5
f 55/16/5 120/16/5 121/16/5
f 58/16/5 117/16/5 124/16/5
f 52/16/5 122/16/5 118/16/5
f 59/16/5 118/16/5 125/16/5
f 60/16/5 117/16/5 126/16/5
f 60/16/5 125/16/5 126/16/5
f 61/16/5 128/16/5 127/16/5
f 63/16/5 130/16/5 129/16/5
f 65/16/5 129/16/5 131/16/5
f 66/16/5 130/16/5 132/16/5
f 66/16/5 131/16/5 132/16/5
f 62/16/5 132/16/5 128/16/5
f 64/16/5 126/16/5 130/16/5
f 63/16/5 125/16/5 129/16/5
f 61/16/5 131/16/5 127/16/5
f 4/16/5 83/16/5 70/16/5
f 3/16/5 127/16/5 69/16/5
f 1/16/5 69/16/5 67/16/5
f 2/16/5 70/16/5 68/16/5
f 62/16/5 67/16/5 128/16/5
f 1/16/5 84/16/5 67/16/5
f 25/16/5 71/16/5 91/16/5
f 6/16/5 71/16/5 72/16/5
f 31/16/5 73/16/5 97/16/5
f 8/16/5 73/16/5 74/16/5
f 9/16/5 98/16/5 75/16/5
f 10/16/5 75/16/5 76/16/5
f 26/16/5 77/16/5 92/16/5
f 12/16/5 77/16/5 78/16/5
f 11/16/5 74/16/5 77/16/5
f 7/16/5 78/16/5 73/16/5
f 6/16/5 75/16/5 72/16/5
f 5/16/5 76/16/5 71/16/5
f 11/16/5 76/16/5 77/16/5
s 1
f 56/1/1 55/113/1 57/2/1
s 2
f 61/4/1 62/114/1 1/5/1
s 3
f 42/7/2 37/115/2 14/8/2
s 4
f 19/10/3 3/116/3 1/11/3
s 5
f 38/117/4 46/118/4 50/119/4
f 49/13/4 44/120/4 35/121/4
f 37/15/4 38/117/4 50/119/4
f 49/13/4 35/121/4 36/122/4
f 37/15/4 50/119/4 49/13/4
f 16/14/4 14/123/4 37/15/4
f 49/13/4 36/122/4 16/14/4
s 0
f 20/16/5 17/16/5 24/16/5
s 7
f 7/17/2 12/124/2 11/18/2
s 8
f 33/20/6 6/125/6 9/21/6
s 9
f 6/23/3 5/126/3 10/24/3
s 10
f 28/26/7 26/127/7 11/27/7
s 11
f 11/27/4 12/61/4 9/29/4
s 12
f 31/30/8 7/128/8 6/31/8
s 13
f 6/31/9 7/128/9 8/33/9
s 14
f 35/35/10 44/129/10 43/36/10
s 15
f 15/9/11 14/8/11 34/38/11
s 16
f 34/40/12 14/123/12 16/14/12
s 17
f 17/42/2 20/130/2 2/43/2
s 18
f 25/45/13 19/10/13 18/12/13
s 19
f 25/47/14 27/131/14 17/48/14
s 20
f 23/50/15 22/132/15 29/51/15
s 0
f 8/16/5 11/16/5 22/16/5
f 26/16/5 20/16/5 21/16/5
f 27/16/5 8/16/5 23/16/5
f 17/16/5 27/16/5 30/16/5
f 11/16/5 26/16/5 29/16/5
s 26
f 30/53/16 29/133/16 21/54/16
s 27
f 8/33/17 27/131/17 25/47/17
s 28
f 5/56/18 25/134/18 28/57/18
s 29
f 20/59/19 26/127/19 28/26/19
s 30
f 12/61/20 34/40/20 32/41/20
s 31
f 31/62/21 34/135/21 12/63/21
s 32
f 15/65/22 31/30/22 33/32/22
s 33
f 13/67/23 33/136/23 32/68/23
s 34
f 36/70/24 35/137/24 40/71/24
s 35
f 37/73/25 42/138/25 41/74/25
s 36
f 39/72/3 13/67/3 16/69/3
s 37
f 49/76/26 50/139/26 47/77/26
s 38
f 43/79/27 44/140/27 49/80/27
s 39
f 46/82/26 38/75/26 41/74/26
s 40
f 54/84/1 4/141/1 2/85/1
s 41
f 45/87/28 47/142/28 50/88/28
s 42
f 53/90/30 57/143/30 55/91/30
s 43
f 40/144/9 43/145/9 48/146/9
f 47/93/9 45/147/9 41/148/9
f 39/94/9 40/144/9 48/146/9
f 47/93/9 41/148/9 42/149/9
f 39/94/9 48/146/9 47/93/9
f 15/65/9 13/66/9 39/94/9
f 47/93/9 42/149/9 15/65/9
s 44
f 51/95/31 52/150/31 56/96/31
s 45
f 1/151/4 62/152/4 66/153/4
f 64/154/4 60/155/4 51/156/4
f 18/60/4 1/151/4 66/153/4
f 64/154/4 51/156/4 58/98/4
f 18/60/4 66/153/4 64/154/4
f 2/157/4 20/59/4 18/60/4
f 57/99/4 53/158/4 2/157/4
f 18/60/4 64/154/4 58/98/4
f 57/99/4 2/157/4 18/60/4
s 46
f 66/100/1 65/159/1 63/101/1
s 47
f 60/103/1 59/160/1 52/104/1
s 48
f 60/106/32 64/161/32 63/107/32
s 49
f 62/109/33 61/162/33 65/110/33
s 50
f 52/163/9 59/164/9 63/165/34
f 65/166/9 61/167/9 3/168/9
f 56/169/9 52/163/9 63/165/34
f 65/166/9 3/168/9 19/49/9
f 56/169/9 63/165/34 65/166/9
f 4/170/9 54/171/9 55/112/9
f 56/169/9 65/166/9 19/49/9
f 17/48/9 4/170/9 55/112/9
f 55/112/9 56/169/9 19/49/9
s 0
f 12/16/5 9/16/5 75/16/5
f 7/16/5 6/16/5 72/16/5
f 8/16/5 5/16/5 71/16/5
f 33/16/5 13/16/5 79/16/5
f 14/16/5 34/16/5 100/16/5
f 13/16/5 15/16/5 81/16/5
f 16/16/5 13/16/5 79/16/5
f 14/16/5 15/16/5 81/16/5
f 16/16/5 14/16/5 80/16/5
f 27/16/5 17/16/5 83/16/5
f 18/16/5 28/16/5 94/16/5
f 19/16/5 3/16/5 69/16/5
f 20/16/5 2/16/5 68/16/5
f 18/16/5 20/16/5 86/16/5
f 20/16/5 17/16/5 83/16/5
f 18/16/5 19/16/5 85/16/5
f 17/16/5 19/16/5 85/16/5
f 22/16/5 29/16/5 95/16/5
f 23/16/5 22/16/5 88/16/5
f 30/16/5 24/16/5 90/16/5
f 24/16/5 21/16/5 87/16/5
f 17/16/5 24/16/5 90/16/5
f 21/16/5 20/16/5 86/16/5
f 11/16/5 22/16/5 88/16/5
f 23/16/5 8/16/5 74/16/5
f 25/16/5 19/16/5 85/16/5
f 26/16/5 20/16/5 86/16/5
f 27/16/5 8/16/5 74/16/5
f 10/16/5 28/16/5 94/16/5
f 21/16/5 29/16/5 95/16/5
f 30/16/5 23/16/5 89/16/5
f 30/16/5 27/16/5 93/16/5
f 29/16/5 26/16/5 92/16/5
f 29/16/5 30/16/5 96/16/5
f 25/16/5 27/16/5 93/16/5
f 28/16/5 25/16/5 91/16/5
f 28/16/5 26/16/5 92/16/5
f 31/16/5 15/16/5 81/16/5
f 16/16/5 32/16/5 98/16/5
f 33/16/5 6/16/5 72/16/5
f 12/16/5 34/16/5 100/16/5
f 32/16/5 34/16/5 100/16/5
f 34/16/5 31/16/5 97/16/5
f 33/16/5 31/16/5 97/16/5
f 32/16/5 33/16/5 99/16/5
f 40/16/5 39/16/5 105/16/5
f 39/16/5 36/16/5 102/16/5
f 35/16/5 36/16/5 102/16/5
f 40/16/5 35/16/5 101/16/5
f 37/16/5 38/16/5 104/16/5
f 42/16/5 37/16/5 103/16/5
f 42/16/5 41/16/5 107/16/5
f 41/16/5 38/16/5 104/16/5
f 39/16/5 13/16/5 79/16/5
f 36/16/5 16/16/5 82/16/5
f 38/16/5 46/16/5 112/16/5
f 43/16/5 40/16/5 106/16/5
f 37/16/5 14/16/5 80/16/5
f 15/16/5 42/16/5 108/16/5
f 44/16/5 35/16/5 101/16/5
f 44/16/5 43/16/5 109/16/5
f 41/16/5 45/16/5 111/16/5
f 45/16/5 46/16/5 112/16/5
f 47/16/5 48/16/5 114/16/5
f 48/16/5 49/16/5 115/16/5
f 50/16/5 49/16/5 115/16/5
f 50/16/5 47/16/5 113/16/5
f 49/16/5 44/16/5 110/16/5
f 48/16/5 43/16/5 109/16/5
f 45/16/5 47/16/5 113/16/5
f 46/16/5 50/16/5 116/16/5
f 51/16/5 52/16/5 118/16/5
f 2/16/5 53/16/5 119/16/5
f 54/16/5 4/16/5 70/16/5
f 53/16/5 54/16/5 120/16/5
f 56/16/5 55/16/5 121/16/5
f 57/16/5 58/16/5 124/16/5
f 58/16/5 56/16/5 122/16/5
f 55/16/5 57/16/5 123/16/5
f 53/16/5 57/16/5 123/16/5
f 55/16/5 54/16/5 120/16/5
f 58/16/5 51/16/5 117/16/5
f 52/16/5 56/16/5 122/16/5
f 59/16/5 52/16/5 118/16/5
f 60/16/5 51/16/5 117/16/5
f 60/16/5 59/16/5 125/16/5
f 61/16/5 62/16/5 128/16/5
f 63/16/5 64/16/5 130/16/5
f 65/16/5 63/16/5 129/16/5
f 66/16/5 64/16/5 130/16/5
f 66/16/5 65/16/5 131/16/5
f 62/16/5 66/16/5 132/16/5
f 64/16/5 60/16/5 126/16/5
f 63/16/5 59/16/5 125/16/5
f 61/16/5 65/16/5 131/16/5
f 4/16/5 17/16/5 83/16/5
f 3/16/5 61/16/5 127/16/5
f 1/16/5 3/16/5 69/16/5
f 2/16/5 4/16/5 70/16/5
f 62/16/5 1/16/5 67/16/5
f 1/16/5 18/16/5 84/16/5
f 25/16/5 5/16/5 71/16/5
f 6/16/5 5/16/5 71/16/5
f 31/16/5 7/16/5 73/16/5
f 8/16/5 7/16/5 73/16/5
f 9/16/5 32/16/5 98/16/5
f 10/16/5 9/16/5 75/16/5
f 26/16/5 11/16/5 77/16/5
f 12/16/5 11/16/5 77/16/5
f 11/16/5 8/16/5 74/16/5
f 7/16/5 12/16/5 78/16/5
f 6/16/5 9/16/5 75/16/5
f 5/16/5 10/16/5 76/16/5
f 11/16/5 10/16/5 76/16/5
