# Blender 5.2.2 LTS
# www.blender.org
mtllib panel_ala2.mtl
g ala2_Dragon_Цилиндр.005
v 4.489100 -0.820321 -0.051646
v 4.489100 0.932049 -0.051646
v 4.489794 -0.820321 -0.010846
v 4.489794 0.932049 -0.010846
v 2.971640 -0.820321 0.015024
v 1.453487 -0.820322 0.040894
v 1.453487 0.932049 0.040894
v 2.971640 0.932049 0.015023
v 1.452792 -0.820322 0.000094
v 2.970946 -0.820321 -0.025776
v 2.970946 0.932049 -0.025777
v 1.452792 0.932049 0.000094
v 1.357384 -0.820322 0.042532
v 1.356688 0.932049 0.001730
v 1.357383 0.932049 0.042531
v 1.356688 -0.820322 0.001730
v 3.075159 0.932049 0.013259
v 3.074463 -0.820321 -0.027540
v 3.075159 -0.820321 0.013259
v 3.074463 0.932049 -0.027541
v 3.074463 0.932049 -0.027541
v 2.970946 0.932049 -0.025777
v 2.971640 0.932049 0.015023
v 3.075159 0.932049 0.013259
v 2.991247 -0.787873 0.013933
v 2.990577 0.899601 -0.025355
v 2.991247 0.899601 0.013933
v 2.990577 -0.787873 -0.025355
v 2.990577 0.899601 -0.025355
v 2.991247 0.899601 0.013933
v 1.435340 0.899601 0.040446
v 1.434670 -0.787873 0.001158
v 1.435340 -0.787873 0.040447
v 1.434670 0.899601 0.001158
v -0.065361 -0.769015 0.025962
v -0.006815 -0.820322 0.024965
v -0.006815 0.932049 0.024965
v -0.065361 0.880743 0.025962
v -0.006118 -0.820322 0.065766
v -0.064666 -0.769015 0.066763
v -0.064666 0.880743 0.066763
v -0.006119 0.932049 0.065766
v -0.064666 -0.693551 0.066763
v -0.065361 -0.686145 0.025962
v -0.064666 -0.574991 0.066763
v -0.065361 -0.568920 0.025962
v -0.023520 -0.574991 0.066062
v -0.023520 -0.693551 0.066062
v -0.024215 -0.686145 0.025261
v -0.024215 -0.568920 0.025261
v 4.489100 0.348290 -0.051646
v 4.489794 0.348483 -0.010846
v 4.489100 0.495723 -0.051646
v 4.489794 0.500002 -0.010846
v 4.409812 0.500002 -0.009484
v 4.409812 0.348483 -0.009484
v 4.409116 0.495723 -0.050283
v 4.409116 0.348290 -0.050283
v 4.489794 -0.693351 -0.010846
v 4.489100 -0.691601 -0.051646
v 4.489794 -0.754774 -0.010846
v 4.489100 -0.752889 -0.051646
v 4.423400 -0.693351 -0.009715
v 4.422705 -0.691601 -0.050515
v 4.423400 -0.754774 -0.009715
v 4.422705 -0.752889 -0.050515
v 4.489100 -0.820321 -0.051646
v 4.489100 0.932049 -0.051646
v 4.489794 -0.820321 -0.010846
v 4.489794 0.932049 -0.010846
v 2.971640 -0.820321 0.015024
v 1.453487 -0.820322 0.040894
v 1.453487 0.932049 0.040894
v 2.971640 0.932049 0.015023
v 1.452792 -0.820322 0.000094
v 2.970946 -0.820321 -0.025776
v 2.970946 0.932049 -0.025777
v 1.452792 0.932049 0.000094
v 1.357384 -0.820322 0.042532
v 1.356688 0.932049 0.001730
v 1.357383 0.932049 0.042531
v 1.356688 -0.820322 0.001730
v 3.075159 0.932049 0.013259
v 3.074463 -0.820321 -0.027540
v 3.075159 -0.820321 0.013259
v 3.074463 0.932049 -0.027541
v 3.074463 0.932049 -0.027541
v 2.970946 0.932049 -0.025777
v 2.971640 0.932049 0.015023
v 3.075159 0.932049 0.013259
v 2.991247 -0.787873 0.013933
v 2.990577 0.899601 -0.025355
v 2.991247 0.899601 0.013933
v 2.990577 -0.787873 -0.025355
v 2.990577 0.899601 -0.025355
v 2.991247 0.899601 0.013933
v 1.435340 0.899601 0.040446
v 1.434670 -0.787873 0.001158
v 1.435340 -0.787873 0.040447
v 1.434670 0.899601 0.001158
v -0.065361 -0.769015 0.025962
v -0.006815 -0.820322 0.024965
v -0.006815 0.932049 0.024965
v -0.065361 0.880743 0.025962
v -0.006118 -0.820322 0.065766
v -0.064666 -0.769015 0.066763
v -0.064666 0.880743 0.066763
v -0.006119 0.932049 0.065766
v -0.064666 -0.693551 0.066763
v -0.065361 -0.686145 0.025962
v -0.064666 -0.574991 0.066763
v -0.065361 -0.568920 0.025962
v -0.023520 -0.574991 0.066062
v -0.023520 -0.693551 0.066062
v -0.024215 -0.686145 0.025261
v -0.024215 -0.568920 0.025261
v 4.489100 0.348290 -0.051646
v 4.489794 0.348483 -0.010846
v 4.489100 0.495723 -0.051646
v 4.489794 0.500002 -0.010846
v 4.409812 0.500002 -0.009484
v 4.409812 0.348483 -0.009484
v 4.409116 0.495723 -0.050283
v 4.409116 0.348290 -0.050283
v 4.489794 -0.693351 -0.010846
v 4.489100 -0.691601 -0.051646
v 4.489794 -0.754774 -0.010846
v 4.489100 -0.752889 -0.051646
v 4.423400 -0.693351 -0.009715
v 4.422705 -0.691601 -0.050515
v 4.423400 -0.754774 -0.009715
v 4.422705 -0.752889 -0.050515
vn -0.9999 -0.0000 0.0171
vn -0.9999 -0.0000 0.0170
vn -0.0000 -1.0000 -0.0000
vn -0.0000 1.0000 -0.0000
vn 0.0170 -0.0000 0.9999
vn -0.0000 -0.0000 -1.0000
vn 0.8728 0.4879 -0.0149
vn -0.0215 -0.0000 0.9998
vn 0.0246 -0.0000 -0.9997
vn -0.0170 -0.0000 -0.9999
vn 0.9999 -0.0000 -0.0170
vn -0.3841 -0.9233 0.0065
vn 0.0073 -0.0000 1.0000
vn 0.3606 0.9327 -0.0062
vn -0.0080 -0.0000 -1.0000
vn -0.8556 -0.5175 0.0146
vn 0.3606 -0.9327 -0.0061
vn 0.3606 -0.9327 -0.0062
vn -0.0555 -0.0000 -0.9985
vn -0.8556 0.5175 0.0146
vn 0.0260 -0.0000 0.9997
vn 0.0586 -0.0000 0.9983
vn 0.8728 -0.4879 -0.0149
vn -0.0267 -0.0000 -0.9996
vn -0.3841 0.9233 0.0065
vn 0.6589 0.7521 -0.0112
vn 0.6589 0.7521 -0.0113
vn 0.6589 -0.7521 -0.0112
vn -0.0030 -0.9839 -0.1785
vn 0.0025 0.9891 0.1471
vn -0.0018 0.9945 -0.1043
vn 0.0001 -1.0000 0.0047
vn 0.0007 0.9991 0.0428
vn -0.0008 -0.9989 -0.0461
vt 0.659950 0.962756
vt 0.657139 0.974337
vt 0.657139 0.962741
vt 0.303412 0.984785
vt 0.306223 0.989941
vt 0.303412 0.989941
vt 0.529495 0.844171
vt 0.532328 0.936888
vt 0.529516 0.936886
vt 0.938676 0.106783
vt 0.935863 0.009283
vt 0.938676 0.009283
vt 0.014059 0.314415
vt 0.003536 0.219275
vt 0.140970 0.313609
vt 0.449124 0.745055
vt 0.940376 0.323464
vt 0.937563 0.426692
vt 0.937563 0.323461
vt 0.990316 0.344120
vt 0.987629 0.341347
vt 0.990316 0.341412
vt 0.931052 0.258875
vt 0.928240 0.154241
vt 0.931052 0.154241
vt 0.138421 0.107164
vt 0.003536 0.108096
vt 0.006077 0.106755
vt 0.140970 0.108521
vt 0.003536 0.212656
vt 0.427688 0.106998
vt 0.292546 0.107587
vt 0.295093 0.106362
vt 0.430239 0.108248
vt 0.292546 0.211658
vt 0.978944 0.879716
vt 0.976165 0.885617
vt 0.976133 0.879727
vt 0.529583 0.941770
vt 0.532291 0.941772
vt 0.006077 0.213915
vt 0.140970 0.219700
vt 0.340748 0.946043
vt 0.337935 0.849848
vt 0.340748 0.849851
vt 0.938652 0.003536
vt 0.935944 0.003536
vt 0.427688 0.213657
vt 0.292546 0.218754
vt 0.295093 0.213020
vt 0.563778 0.992280
vt 0.566331 0.995084
vt 0.563778 0.994987
vt 0.927114 0.980484
vt 0.929866 0.986607
vt 0.927054 0.986607
vt 0.430239 0.212318
vt 0.547382 0.992433
vt 0.544831 0.995237
vt 0.544831 0.992426
vt 0.003536 0.100967
vt 0.140970 0.213081
vt 0.969085 0.179191
vt 0.966707 0.181974
vt 0.966707 0.179162
vt 0.430239 0.101660
vt 0.292546 0.100999
vt 0.941121 0.482878
vt 0.943910 0.488287
vt 0.941098 0.488288
vt 0.978981 0.875213
vt 0.976169 0.875223
vt 0.532307 0.844173
vt 0.529516 0.839529
vt 0.532328 0.839531
vt 0.941098 0.582263
vt 0.943910 0.582263
vt 0.128834 0.971601
vt 0.126022 0.980272
vt 0.126022 0.971017
vt 0.873483 0.472896
vt 0.870687 0.475805
vt 0.870687 0.472994
vt 0.928791 0.004015
vt 0.925979 0.117164
vt 0.925979 0.003536
vt 0.423948 0.909382
vt 0.421137 0.943366
vt 0.421137 0.909046
vt 0.946601 0.754292
vt 0.943794 0.757135
vt 0.943794 0.754300
vt 0.984255 0.538018
vt 0.987071 0.532510
vt 0.987071 0.538022
vt 0.311823 0.006430
vt 0.292546 0.007530
vt 0.892212 0.983842
vt 0.895025 0.989280
vt 0.892212 0.989280
vt 0.095187 0.009328
vt 0.106750 0.009364
vt 0.989560 0.125830
vt 0.986749 0.121147
vt 0.989560 0.121010
vt 0.544831 0.861766
vt 0.547642 0.943577
vt 0.544831 0.943562
vt 0.502553 0.989992
vt 0.505364 0.985414
vt 0.505364 0.989990
vt 0.529495 0.985552
vt 0.532306 0.990094
vt 0.529495 0.990067
vt 0.430239 0.219415
vt 0.396291 0.310743
vt 0.659950 0.974674
vt 0.306223 0.984637
vt 0.935863 0.106783
vt 0.136946 0.317629
vt 0.023253 0.317278
vt 0.023253 0.314444
vt 0.014059 0.317249
vt 0.007560 0.317229
vt 0.003536 0.313184
vt 0.940376 0.426695
vt 0.987629 0.344158
vt 0.928240 0.258876
vt 0.978981 0.886185
vt 0.138421 0.214325
vt 0.337935 0.946040
vt 0.566331 0.992273
vt 0.929822 0.980484
vt 0.547382 0.995140
vt 0.140970 0.101392
vt 0.969085 0.181899
vt 0.943829 0.482877
vt 0.128834 0.980751
vt 0.873483 0.475707
vt 0.928791 0.117169
vt 0.423948 0.943366
vt 0.946601 0.757128
vt 0.984255 0.532505
vt 0.296577 0.003536
vt 0.302507 0.003564
vt 0.302507 0.006385
vt 0.311823 0.003609
vt 0.426208 0.004158
vt 0.430239 0.008191
vt 0.895025 0.983842
vt 0.003536 0.003536
vt 0.008825 0.003552
vt 0.008825 0.008125
vt 0.013631 0.008140
vt 0.013631 0.003567
vt 0.095187 0.003819
vt 0.140970 0.003961
vt 0.106750 0.003855
vt 0.986749 0.125978
vt 0.547642 0.861628
vt 0.502553 0.985416
vt 0.532306 0.985579
vt 0.384385 0.316169
vt 0.302523 0.315776
vt 0.302523 0.311225
vt 0.297696 0.311202
vt 0.297696 0.315753
vt 0.292546 0.315729
vt 0.384385 0.310687
vt 0.430239 0.316389
vt 0.396291 0.316226
s 1
g off
g ala2_Dragon.001
usemtl Dragon.001
f 56/1/1 57/2/1 58/3/1
s 2
f 61/4/2 1/5/2 3/6/2
s 3
f 42/7/3 14/8/3 15/9/3
s 4
f 3/10/4 18/11/4 19/12/4
s 5
f 49/13/5 16/14/5 37/15/5
s 0
f 20/16/6 24/16/6 21/16/6
s 7
f 8/17/3 12/18/3 11/19/3
s 8
f 33/20/7 9/21/7 32/22/7
s 9
f 5/23/4 9/24/4 6/25/4
s 10
f 26/26/8 10/27/8 28/28/8
s 11
f 11/29/5 9/30/5 10/27/5
s 12
f 31/31/9 6/32/9 33/33/9
s 13
f 7/34/10 5/35/10 6/32/10
s 14
f 35/36/11 43/37/11 40/38/11
s 15
f 31/39/12 14/8/12 34/40/12
s 16
f 32/41/13 14/42/13 16/14/13
s 17
f 17/43/3 2/44/3 4/45/3
s 18
f 25/46/14 18/11/14 28/47/14
s 19
f 27/48/15 19/49/15 25/50/15
s 20
f 30/51/16 22/52/16 29/53/16
s 0
f 8/16/6 22/16/6 23/16/6
f 26/16/6 21/16/6 29/16/6
f 27/16/6 23/16/6 30/16/6
f 17/16/6 30/16/6 24/16/6
f 11/16/6 29/16/6 22/16/6
s 26
f 30/54/17 21/55/18 24/56/18
s 27
f 8/57/19 25/50/19 5/35/19
s 28
f 25/58/20 10/59/20 5/60/20
s 29
f 18/61/21 26/26/21 28/28/21
s 30
f 12/62/22 32/41/22 9/30/22
s 31
f 31/63/23 12/64/23 7/65/23
s 32
f 15/66/24 33/33/24 13/67/24
s 33
f 33/68/25 16/69/25 13/70/25
s 34
f 36/71/26 40/38/26 39/72/27
s 35
f 37/73/28 41/74/28 38/75/28
s 36
f 39/76/4 16/69/4 36/77/4
s 37
f 49/78/11 47/79/11 48/80/11
s 38
f 43/81/29 49/82/29 48/83/29
s 39
f 46/84/11 41/85/11 45/86/11
s 40
f 54/87/2 2/88/2 53/89/2
s 41
f 45/90/30 50/91/30 46/92/30
s 42
f 53/93/31 55/94/31 54/95/31
s 43
f 47/96/10 15/66/10 39/97/10
s 44
f 51/98/32 56/99/32 58/100/32
s 45
f 58/101/5 57/102/5 18/61/5
s 46
f 66/103/2 63/104/2 64/105/2
s 47
f 60/106/2 52/107/2 51/108/2
s 48
f 60/109/33 63/110/33 59/111/33
s 49
f 62/112/34 65/113/34 66/114/34
s 50
f 19/49/10 17/115/10 55/116/10
s 0
f 4/16/6 83/16/6 70/16/6
f 3/16/6 127/16/6 69/16/6
f 1/16/6 69/16/6 67/16/6
f 2/16/6 70/16/6 68/16/6
f 62/16/6 67/16/6 128/16/6
f 1/16/6 84/16/6 67/16/6
f 25/16/6 71/16/6 91/16/6
f 6/16/6 71/16/6 72/16/6
f 31/16/6 73/16/6 97/16/6
f 8/16/6 73/16/6 74/16/6
f 9/16/6 98/16/6 75/16/6
f 10/16/6 75/16/6 76/16/6
f 26/16/6 77/16/6 92/16/6
f 12/16/6 77/16/6 78/16/6
f 11/16/6 74/16/6 77/16/6
f 7/16/6 78/16/6 73/16/6
f 6/16/6 75/16/6 72/16/6
f 5/16/6 76/16/6 71/16/6
f 11/16/6 76/16/6 77/16/6
f 12/16/6 75/16/6 78/16/6
f 7/16/6 72/16/6 73/16/6
f 8/16/6 71/16/6 74/16/6
f 33/16/6 79/16/6 99/16/6
f 14/16/6 100/16/6 80/16/6
f 13/16/6 81/16/6 79/16/6
f 16/16/6 79/16/6 82/16/6
f 14/16/6 81/16/6 80/16/6
f 16/16/6 80/16/6 82/16/6
f 27/16/6 83/16/6 93/16/6
f 18/16/6 94/16/6 84/16/6
f 19/16/6 69/16/6 85/16/6
f 20/16/6 68/16/6 86/16/6
f 18/16/6 86/16/6 84/16/6
f 20/16/6 83/16/6 86/16/6
f 18/16/6 85/16/6 84/16/6
f 17/16/6 85/16/6 83/16/6
f 22/16/6 95/16/6 88/16/6
f 23/16/6 88/16/6 89/16/6
f 30/16/6 90/16/6 96/16/6
f 24/16/6 87/16/6 90/16/6
f 17/16/6 90/16/6 83/16/6
f 21/16/6 86/16/6 87/16/6
f 11/16/6 88/16/6 77/16/6
f 23/16/6 74/16/6 89/16/6
f 25/16/6 85/16/6 91/16/6
f 26/16/6 86/16/6 92/16/6
f 27/16/6 74/16/6 93/16/6
f 10/16/6 94/16/6 76/16/6
f 21/16/6 95/16/6 87/16/6
f 30/16/6 89/16/6 96/16/6
f 30/16/6 93/16/6 96/16/6
f 29/16/6 92/16/6 95/16/6
f 29/16/6 96/16/6 95/16/6
f 25/16/6 93/16/6 91/16/6
f 28/16/6 91/16/6 94/16/6
f 28/16/6 92/16/6 94/16/6
f 31/16/6 81/16/6 97/16/6
f 16/16/6 98/16/6 82/16/6
f 33/16/6 72/16/6 99/16/6
f 12/16/6 100/16/6 78/16/6
f 32/16/6 100/16/6 98/16/6
f 34/16/6 97/16/6 100/16/6
f 33/16/6 97/16/6 99/16/6
f 32/16/6 99/16/6 98/16/6
f 40/16/6 105/16/6 106/16/6
f 39/16/6 102/16/6 105/16/6
f 35/16/6 102/16/6 101/16/6
f 40/16/6 101/16/6 106/16/6
f 37/16/6 104/16/6 103/16/6
f 42/16/6 103/16/6 108/16/6
f 42/16/6 107/16/6 108/16/6
f 41/16/6 104/16/6 107/16/6
f 39/16/6 79/16/6 105/16/6
f 36/16/6 82/16/6 102/16/6
f 38/16/6 112/16/6 104/16/6
f 43/16/6 106/16/6 109/16/6
f 37/16/6 80/16/6 103/16/6
f 15/16/6 108/16/6 81/16/6
f 44/16/6 101/16/6 110/16/6
f 44/16/6 109/16/6 110/16/6
f 41/16/6 111/16/6 107/16/6
f 45/16/6 112/16/6 111/16/6
f 47/16/6 114/16/6 113/16/6
f 48/16/6 115/16/6 114/16/6
f 50/16/6 115/16/6 116/16/6
f 50/16/6 113/16/6 116/16/6
f 49/16/6 110/16/6 115/16/6
f 48/16/6 109/16/6 114/16/6
f 45/16/6 113/16/6 111/16/6
f 46/16/6 116/16/6 112/16/6
f 51/16/6 118/16/6 117/16/6
f 2/16/6 119/16/6 68/16/6
f 54/16/6 70/16/6 120/16/6
f 53/16/6 120/16/6 119/16/6
f 56/16/6 121/16/6 122/16/6
f 57/16/6 124/16/6 123/16/6
f 58/16/6 122/16/6 124/16/6
f 55/16/6 123/16/6 121/16/6
f 53/16/6 123/16/6 119/16/6
f 55/16/6 120/16/6 121/16/6
f 58/16/6 117/16/6 124/16/6
f 52/16/6 122/16/6 118/16/6
f 59/16/6 118/16/6 125/16/6
f 60/16/6 117/16/6 126/16/6
f 60/16/6 125/16/6 126/16/6
f 61/16/6 128/16/6 127/16/6
f 63/16/6 130/16/6 129/16/6
f 65/16/6 129/16/6 131/16/6
f 66/16/6 130/16/6 132/16/6
f 66/16/6 131/16/6 132/16/6
f 62/16/6 132/16/6 128/16/6
f 64/16/6 126/16/6 130/16/6
f 63/16/6 125/16/6 129/16/6
f 61/16/6 131/16/6 127/16/6
s 1
f 56/1/1 55/117/1 57/2/1
s 2
f 61/4/2 62/118/2 1/5/2
s 3
f 42/7/3 37/73/3 14/8/3
s 4
f 3/10/4 1/119/4 18/11/4
s 5
f 38/120/5 46/121/5 50/122/5
f 49/13/5 44/123/5 35/124/5
f 37/15/5 38/120/5 50/122/5
f 49/13/5 35/124/5 36/125/5
f 37/15/5 50/122/5 49/13/5
f 16/14/5 14/42/5 37/15/5
f 49/13/5 36/125/5 16/14/5
s 0
f 20/16/6 17/16/6 24/16/6
s 7
f 8/17/3 7/126/3 12/18/3
s 8
f 33/20/7 6/127/7 9/21/7
s 9
f 5/23/4 10/128/4 9/24/4
s 10
f 26/26/8 11/29/8 10/27/8
s 11
f 11/29/5 12/62/5 9/30/5
s 12
f 31/31/9 7/34/9 6/32/9
s 13
f 7/34/10 8/57/10 5/35/10
s 14
f 35/36/11 44/129/11 43/37/11
s 15
f 31/39/12 15/9/12 14/8/12
s 16
f 32/41/13 34/130/13 14/42/13
s 17
f 17/43/3 20/131/3 2/44/3
s 18
f 25/46/14 19/12/14 18/11/14
s 19
f 27/48/15 17/115/15 19/49/15
s 20
f 30/51/16 23/132/16 22/52/16
s 0
f 8/16/6 11/16/6 22/16/6
f 26/16/6 20/16/6 21/16/6
f 27/16/6 8/16/6 23/16/6
f 17/16/6 27/16/6 30/16/6
f 11/16/6 26/16/6 29/16/6
s 26
f 30/54/17 29/133/17 21/55/18
s 27
f 8/57/19 27/48/19 25/50/19
s 28
f 25/58/20 28/134/20 10/59/20
s 29
f 18/61/21 20/135/21 26/26/21
s 30
f 12/62/22 34/130/22 32/41/22
s 31
f 31/63/23 34/136/23 12/64/23
s 32
f 15/66/24 31/31/24 33/33/24
s 33
f 33/68/25 32/137/25 16/69/25
s 34
f 36/71/26 35/36/26 40/38/26
s 35
f 37/73/28 42/7/28 41/74/28
s 36
f 39/76/4 13/70/4 16/69/4
s 37
f 49/78/11 50/138/11 47/79/11
s 38
f 43/81/29 44/139/29 49/82/29
s 39
f 46/84/11 38/140/11 41/85/11
s 40
f 54/87/2 4/141/2 2/88/2
s 41
f 45/90/30 47/142/30 50/91/30
s 42
f 53/93/31 57/143/31 55/94/31
s 43
f 40/144/10 43/145/10 48/146/10
f 47/96/10 45/147/10 41/148/10
f 39/97/10 40/144/10 48/146/10
f 47/96/10 41/148/10 42/149/10
f 39/97/10 48/146/10 47/96/10
f 15/66/10 13/67/10 39/97/10
f 47/96/10 42/149/10 15/66/10
s 44
f 51/98/32 52/150/32 56/99/32
s 45
f 1/151/5 62/152/5 66/153/5
f 64/154/5 60/155/5 51/156/5
f 18/61/5 1/151/5 66/153/5
f 64/154/5 51/156/5 58/101/5
f 18/61/5 66/153/5 64/154/5
f 2/157/5 20/135/5 18/61/5
f 57/102/5 53/158/5 2/157/5
f 18/61/5 64/154/5 58/101/5
f 57/102/5 2/157/5 18/61/5
s 46
f 66/103/2 65/159/2 63/104/2
s 47
f 60/106/2 59/160/2 52/107/2
s 48
f 60/109/33 64/161/33 63/110/33
s 49
f 62/112/34 61/162/34 65/113/34
s 50
f 52/163/10 59/164/10 63/165/10
f 65/166/10 61/167/10 3/168/10
f 56/169/10 52/163/10 63/165/10
f 65/166/10 3/168/10 19/49/10
f 56/169/10 63/165/10 65/166/10
f 4/170/10 54/171/10 55/116/10
f 56/169/10 65/166/10 19/49/10
f 17/115/10 4/170/10 55/116/10
f 55/116/10 56/169/10 19/49/10
s 0
f 4/16/6 17/16/6 83/16/6
f 3/16/6 61/16/6 127/16/6
f 1/16/6 3/16/6 69/16/6
f 2/16/6 4/16/6 70/16/6
f 62/16/6 1/16/6 67/16/6
f 1/16/6 18/16/6 84/16/6
f 25/16/6 5/16/6 71/16/6
f 6/16/6 5/16/6 71/16/6
f 31/16/6 7/16/6 73/16/6
f 8/16/6 7/16/6 73/16/6
f 9/16/6 32/16/6 98/16/6
f 10/16/6 9/16/6 75/16/6
f 26/16/6 11/16/6 77/16/6
f 12/16/6 11/16/6 77/16/6
f 11/16/6 8/16/6 74/16/6
f 7/16/6 12/16/6 78/16/6
f 6/16/6 9/16/6 75/16/6
f 5/16/6 10/16/6 76/16/6
f 11/16/6 10/16/6 76/16/6
f 12/16/6 9/16/6 75/16/6
f 7/16/6 6/16/6 72/16/6
f 8/16/6 5/16/6 71/16/6
f 33/16/6 13/16/6 79/16/6
f 14/16/6 34/16/6 100/16/6
f 13/16/6 15/16/6 81/16/6
f 16/16/6 13/16/6 79/16/6
f 14/16/6 15/16/6 81/16/6
f 16/16/6 14/16/6 80/16/6
f 27/16/6 17/16/6 83/16/6
f 18/16/6 28/16/6 94/16/6
f 19/16/6 3/16/6 69/16/6
f 20/16/6 2/16/6 68/16/6
f 18/16/6 20/16/6 86/16/6
f 20/16/6 17/16/6 83/16/6
f 18/16/6 19/16/6 85/16/6
f 17/16/6 19/16/6 85/16/6
f 22/16/6 29/16/6 95/16/6
f 23/16/6 22/16/6 88/16/6
f 30/16/6 24/16/6 90/16/6
f 24/16/6 21/16/6 87/16/6
f 17/16/6 24/16/6 90/16/6
f 21/16/6 20/16/6 86/16/6
f 11/16/6 22/16/6 88/16/6
f 23/16/6 8/16/6 74/16/6
f 25/16/6 19/16/6 85/16/6
f 26/16/6 20/16/6 86/16/6
f 27/16/6 8/16/6 74/16/6
f 10/16/6 28/16/6 94/16/6
f 21/16/6 29/16/6 95/16/6
f 30/16/6 23/16/6 89/16/6
f 30/16/6 27/16/6 93/16/6
f 29/16/6 26/16/6 92/16/6
f 29/16/6 30/16/6 96/16/6
f 25/16/6 27/16/6 93/16/6
f 28/16/6 25/16/6 91/16/6
f 28/16/6 26/16/6 92/16/6
f 31/16/6 15/16/6 81/16/6
f 16/16/6 32/16/6 98/16/6
f 33/16/6 6/16/6 72/16/6
f 12/16/6 34/16/6 100/16/6
f 32/16/6 34/16/6 100/16/6
f 34/16/6 31/16/6 97/16/6
f 33/16/6 31/16/6 97/16/6
f 32/16/6 33/16/6 99/16/6
f 40/16/6 39/16/6 105/16/6
f 39/16/6 36/16/6 102/16/6
f 35/16/6 36/16/6 102/16/6
f 40/16/6 35/16/6 101/16/6
f 37/16/6 38/16/6 104/16/6
f 42/16/6 37/16/6 103/16/6
f 42/16/6 41/16/6 107/16/6
f 41/16/6 38/16/6 104/16/6
f 39/16/6 13/16/6 79/16/6
f 36/16/6 16/16/6 82/16/6
f 38/16/6 46/16/6 112/16/6
f 43/16/6 40/16/6 106/16/6
f 37/16/6 14/16/6 80/16/6
f 15/16/6 42/16/6 108/16/6
f 44/16/6 35/16/6 101/16/6
f 44/16/6 43/16/6 109/16/6
f 41/16/6 45/16/6 111/16/6
f 45/16/6 46/16/6 112/16/6
f 47/16/6 48/16/6 114/16/6
f 48/16/6 49/16/6 115/16/6
f 50/16/6 49/16/6 115/16/6
f 50/16/6 47/16/6 113/16/6
f 49/16/6 44/16/6 110/16/6
f 48/16/6 43/16/6 109/16/6
f 45/16/6 47/16/6 113/16/6
f 46/16/6 50/16/6 116/16/6
f 51/16/6 52/16/6 118/16/6
f 2/16/6 53/16/6 119/16/6
f 54/16/6 4/16/6 70/16/6
f 53/16/6 54/16/6 120/16/6
f 56/16/6 55/16/6 121/16/6
f 57/16/6 58/16/6 124/16/6
f 58/16/6 56/16/6 122/16/6
f 55/16/6 57/16/6 123/16/6
f 53/16/6 57/16/6 123/16/6
f 55/16/6 54/16/6 120/16/6
f 58/16/6 51/16/6 117/16/6
f 52/16/6 56/16/6 122/16/6
f 59/16/6 52/16/6 118/16/6
f 60/16/6 51/16/6 117/16/6
f 60/16/6 59/16/6 125/16/6
f 61/16/6 62/16/6 128/16/6
f 63/16/6 64/16/6 130/16/6
f 65/16/6 63/16/6 129/16/6
f 66/16/6 64/16/6 130/16/6
f 66/16/6 65/16/6 131/16/6
f 62/16/6 66/16/6 132/16/6
f 64/16/6 60/16/6 126/16/6
f 63/16/6 59/16/6 125/16/6
f 61/16/6 65/16/6 131/16/6
